<svg aria-hidden="true" style="width:0;height:0;position:absolute;overflow:hidden" xmlns="http://www.w3.org/2000/svg"><defs><symbol id="icon-mouse" viewBox="0 0 19 32"><path d="M0 0h19.345v32H0z"/></symbol><symbol id="icon-logo-shop" viewBox="0 0 78 32"><path fill="#fff" style="fill:var(--color1,#fff)" d="M7.154 9.215V9.19c0-.192-.035-.375-.099-.544l.003.011a1.062 1.062 0 0 0-.333-.461l-.002-.002a2.946 2.946 0 0 0-.694-.422 8.934 8.934 0 0 0-1.087-.413l-.069-.019a14.193 14.193 0 0 1-1.591-.612l.092.037a6.128 6.128 0 0 1-1.259-.753l.014.011a3.371 3.371 0 0 1-.837-.98l-.009-.017c-.202-.378-.304-.817-.304-1.317v-.035c0-.469.119-.91.327-1.296l-.007.014a3.05 3.05 0 0 1 .885-1.015l.009-.006A4.245 4.245 0 0 1 3.549.709 6.008 6.008 0 0 1 5.22.477h.063-.003c.856 0 1.603.155 2.242.463s1.133.731 1.484 1.268c.356.538.534 1.152.534 1.843H7.162c0-.34-.072-.638-.216-.893a1.467 1.467 0 0 0-.63-.611l-.008-.004c-.282-.148-.639-.223-1.069-.223-.415 0-.761.064-1.038.191-.276.123-.484.29-.622.503-.13.193-.208.43-.208.686v.016-.001c0 .197.048.376.144.535.101.159.25.308.447.447s.439.269.726.391.62.242.997.359c.633.191 1.189.407 1.667.647.483.238.888.507 1.213.805s.569.635.734 1.013.247.806.247 1.285c0 .505-.098.957-.295 1.356a2.81 2.81 0 0 1-.846 1.008l-.008.005c-.372.276-.817.487-1.332.63s-1.093.215-1.731.215a6.556 6.556 0 0 1-1.699-.223 5.182 5.182 0 0 1-1.542-.706l.018.012a3.526 3.526 0 0 1-1.076-1.163l-.009-.017C.754 9.836.619 9.269.619 8.615h2.402c0 .362.056.667.167.918s.268.452.47.606c.208.155.452.266.734.336.287.069.601.104.942.104.415 0 .756-.059 1.021-.176.271-.117.47-.279.598-.487.125-.194.2-.43.2-.684v-.018.001zM18.923 5.37v1.867h-6.064V5.37h6.064zM13.569.638v11.617h-2.394V.638h2.394zm7.061 0v11.617h-2.385V.638h2.385zm11.626 5.537v.551c0 .883-.12 1.675-.359 2.378s-.577 1.3-1.014 1.795a4.413 4.413 0 0 1-1.536 1.114l-.028.011c-.601.261-1.268.391-2.002.391-.729 0-1.397-.13-2.003-.391a4.51 4.51 0 0 1-1.56-1.121l-.004-.004a5.241 5.241 0 0 1-1.029-1.795c-.24-.702-.359-1.494-.359-2.378v-.551c0-.888.119-1.68.359-2.378.24-.702.577-1.3 1.013-1.795A4.465 4.465 0 0 1 25.269.88l.028-.011A5.03 5.03 0 0 1 27.3.478a4.99 4.99 0 0 1 2.002.391 4.365 4.365 0 0 1 1.564 1.133 5.162 5.162 0 0 1 1.021 1.795c.245.697.367 1.49.367 2.378zm-2.417.551V6.16c0-.617-.056-1.159-.168-1.627s-.276-.862-.494-1.181a2.158 2.158 0 0 0-.786-.713l-.012-.006c-.314-.165-.673-.247-1.077-.247s-.763.082-1.077.247c-.308.16-.572.399-.79.718-.213.319-.375.713-.487 1.181s-.168 1.011-.168 1.627v.567c0 .611.056 1.154.168 1.627.112.468.276.865.494 1.189.218.319.484.561.798.726s.673.247 1.077.247a2.28 2.28 0 0 0 1.077-.247c.324-.175.59-.421.785-.718l.005-.008c.213-.325.375-.721.487-1.189a7.11 7.11 0 0 0 .168-1.628zm8.665 1.388h-2.96V6.247h2.96c.458 0 .829-.075 1.117-.223.287-.155.497-.368.63-.639s.2-.577.2-.918c0-.345-.066-.667-.2-.965a1.621 1.621 0 0 0-.624-.714l-.007-.004c-.287-.181-.659-.272-1.117-.272h-2.131v9.742h-2.393V.637h4.524c.91 0 1.688.165 2.337.495.654.325 1.155.774 1.5 1.348s.519 1.232.519 1.971c0 .75-.173 1.399-.518 1.947s-.846.97-1.501 1.268c-.649.298-1.428.447-2.337.447zM50.973.639v11.617H48.58V.639h2.393zm4.628 4.962v1.867h-5.282V5.601h5.282zm.558-4.963v1.875h-5.84V.639h5.84zm10.932 5.537v.551c0 .883-.12 1.675-.359 2.378s-.577 1.3-1.014 1.795a4.409 4.409 0 0 1-1.535 1.114l-.028.011c-.601.261-1.269.391-2.003.391a5.01 5.01 0 0 1-2.002-.391 4.51 4.51 0 0 1-1.56-1.121l-.004-.004a5.241 5.241 0 0 1-1.029-1.795c-.239-.702-.359-1.494-.359-2.378v-.551c0-.888.12-1.68.359-2.378.24-.702.577-1.3 1.013-1.795A4.465 4.465 0 0 1 60.105.88l.028-.011a5.03 5.03 0 0 1 2.003-.391 4.99 4.99 0 0 1 2.002.391 4.373 4.373 0 0 1 1.564 1.133 5.162 5.162 0 0 1 1.021 1.795c.245.697.368 1.49.368 2.378zm-2.417.551V6.16c0-.617-.056-1.159-.168-1.627s-.276-.862-.494-1.181-.484-.558-.798-.718c-.314-.165-.673-.247-1.077-.247s-.763.082-1.077.247c-.308.16-.572.399-.79.718-.213.319-.375.713-.487 1.181s-.167 1.011-.167 1.627v.567c0 .611.056 1.154.167 1.627.112.468.276.865.494 1.189.218.319.484.561.798.726s.673.247 1.077.247c.404 0 .763-.082 1.077-.247s.577-.407.79-.726c.213-.325.375-.721.487-1.189a7.11 7.11 0 0 0 .168-1.628zm4.14-6.087h4.333c.888 0 1.651.133 2.29.398.643.266 1.138.66 1.484 1.181s.518 1.162.518 1.923c0 .622-.106 1.157-.319 1.604-.21.445-.51.816-.879 1.103l-.007.005a4.554 4.554 0 0 1-1.3.693l-.032.01-.758.399h-3.766l-.016-1.868h2.8c.42 0 .769-.074 1.045-.223a1.47 1.47 0 0 0 .618-.614l.004-.008c.144-.266.216-.575.216-.926 0-.372-.069-.694-.208-.965a1.415 1.415 0 0 0-.622-.619l-.008-.004c-.282-.144-.635-.216-1.061-.216h-1.939v9.742h-2.394V.637zm6.494 11.616L72.66 7.077l2.529-.016 2.68 5.083v.112h-2.561zM18.356 25.247v4.604c-.181.218-.46.455-.837.71-.378.25-.865.465-1.46.646s-1.317.271-2.162.271c-.75 0-1.433-.123-2.051-.367a4.464 4.464 0 0 1-1.593-1.09l-.002-.003c-.442-.479-.782-1.064-1.021-1.755-.24-.697-.36-1.492-.36-2.386v-.727c0-.893.114-1.689.343-2.386.234-.697.566-1.284.997-1.763a4.282 4.282 0 0 1 1.512-1.082l.028-.011c.596-.25 1.258-.374 1.987-.374 1.01 0 1.84.165 2.489.494.649.325 1.144.776 1.484 1.356.346.575.558 1.234.638 1.979h-2.322a2.968 2.968 0 0 0-.335-1.029 1.748 1.748 0 0 0-.701-.682l-.009-.005c-.303-.165-.697-.247-1.181-.247-.398 0-.755.082-1.069.247a2.14 2.14 0 0 0-.777.702l-.005.008c-.213.313-.375.702-.487 1.164s-.168 1.001-.168 1.612v.742c0 .606.059 1.144.176 1.612.117.463.289.854.518 1.173.234.313.522.55.862.71s.737.239 1.189.239c.378 0 .692-.032.942-.095.255-.064.46-.141.614-.232.139-.08.26-.17.369-.273l-.001.001v-2.058h-2.187v-1.708h4.58zm6.654-3.558-3.159 9.631h-2.546l4.317-11.617h1.62l-.232 1.987zm2.626 9.63-3.168-9.631-.255-1.987h1.635l4.34 11.617h-2.553zm-.144-4.325v1.875h-6.136v-1.875h6.136zm4.867-7.292h2.027l2.984 8.529 2.984-8.53h2.026l-4.197 11.617h-1.627l-4.197-11.617zm-1.093 0h2.019l.367 8.313v3.303h-2.386V19.701zm10.189 0h2.026v11.617h-2.393v-3.303l.367-8.313zm11.92 9.75v1.867h-6.184v-1.867h6.184zm-5.402-9.75v11.617h-2.394V19.702h2.394zm4.596 4.732v1.819h-5.377v-1.819h5.377zm.798-4.732v1.875h-6.175v-1.874h6.175zm1.404 0h4.333c.888 0 1.651.133 2.29.399.643.266 1.138.66 1.484 1.181s.518 1.162.518 1.923c0 .622-.106 1.157-.319 1.603a3.04 3.04 0 0 1-.878 1.105l-.007.005c-.381.292-.823.53-1.3.692l-.032.01-.758.4h-3.765l-.016-1.868h2.8c.42 0 .769-.074 1.045-.223a1.47 1.47 0 0 0 .618-.614l.004-.008c.144-.266.216-.574.216-.926 0-.372-.069-.694-.208-.965a1.415 1.415 0 0 0-.622-.619l-.008-.004c-.282-.144-.635-.216-1.061-.216h-1.94v9.742h-2.394V19.702zm6.495 11.617-2.649-5.178 2.529-.016 2.681 5.083v.112h-2.561zm10.021-3.04a1.53 1.53 0 0 0-.096-.558 1.054 1.054 0 0 0-.333-.461l-.002-.002a2.946 2.946 0 0 0-.694-.422 9.037 9.037 0 0 0-1.087-.413l-.07-.019a14.296 14.296 0 0 1-1.592-.611l.091.037a6.128 6.128 0 0 1-1.259-.753l.014.011a3.362 3.362 0 0 1-.837-.981l-.009-.017c-.202-.378-.303-.817-.303-1.317v-.036c0-.469.118-.909.327-1.294l-.007.014a3.05 3.05 0 0 1 .885-1.015l.009-.006a4.245 4.245 0 0 1 1.356-.662 6.008 6.008 0 0 1 1.671-.232h.064-.003c.856 0 1.604.155 2.242.463s1.133.731 1.484 1.268c.356.538.534 1.152.534 1.843h-2.378c0-.34-.072-.638-.216-.893a1.467 1.467 0 0 0-.63-.611l-.008-.004c-.282-.148-.639-.223-1.069-.223-.415 0-.761.064-1.038.191-.276.123-.483.29-.622.503-.13.193-.208.43-.208.686v.016-.001c0 .197.048.376.144.535.101.159.251.308.447.447s.438.269.726.392c.287.123.62.242.997.359.633.191 1.189.407 1.667.647.484.238.888.507 1.213.805s.569.635.734 1.013c.165.378.248.806.248 1.285 0 .505-.099.957-.296 1.356a2.81 2.81 0 0 1-.846 1.008l-.008.005c-.372.276-.816.487-1.332.63s-1.093.215-1.731.215a6.561 6.561 0 0 1-1.699-.223 5.182 5.182 0 0 1-1.542-.706l.018.012a3.526 3.526 0 0 1-1.076-1.163l-.009-.017c-.271-.479-.406-1.045-.406-1.699h2.401c0 .362.056.667.168.918s.268.452.47.606c.208.155.452.266.734.336.287.069.601.104.942.104.415 0 .756-.059 1.021-.176.272-.117.471-.279.598-.487.133-.207.2-.441.2-.701z"/></symbol><symbol id="icon-keyboard" viewBox="0 0 66 32"><path d="M0 0h66.319v32H0z"/></symbol><symbol id="icon-youtube" viewBox="0 0 32 32"><path d="M28.501 5.973c1.379.349 2.461 1.387 2.829 2.701.669 2.384.669 7.36.669 7.36s0 4.973-.667 7.357c-.371 1.315-1.453 2.307-2.832 2.659-2.496.64-12.501.64-12.501.64s-10.005 0-12.501-.64c-1.379-.352-2.461-1.344-2.832-2.659-.667-2.384-.667-7.36-.667-7.36s0-4.973.667-7.357a3.937 3.937 0 0 1 2.808-2.696l.027-.006C5.994 5.332 16 5.332 16 5.332s10.005 0 12.501.64zm-15.773 5.544v9.032l8.363-4.517-8.363-4.512z"/></symbol><symbol id="icon-menu-open" viewBox="0 0 48 32"><path fill="#86e543" style="fill:var(--color1,#86e543)" d="M45.467 13.333H2.534c-1.399 0-2.533.681-2.533 1.52v.16c0 .839 1.134 1.52 2.533 1.52h42.933c1.399 0 2.533-.681 2.533-1.52v-.16c0-.839-1.134-1.52-2.533-1.52zm0 13.334H2.534c-1.399 0-2.533.681-2.533 1.52v.16c0 .839 1.134 1.52 2.533 1.52h42.933c1.399 0 2.533-.681 2.533-1.52v-.16c0-.839-1.134-1.52-2.533-1.52zm0-26.667H2.534C1.135 0 .001.681.001 1.52v.16c0 .839 1.134 1.52 2.533 1.52h42.933C46.866 3.2 48 2.519 48 1.68v-.16C48 .681 46.866 0 45.467 0z"/></symbol><symbol id="icon-menu-close" viewBox="0 0 32 32"><path fill="none" stroke="#86e543" style="stroke:var(--color1,#86e543)" stroke-linecap="round" stroke-width="3.556" d="M29.629 30.222 2.37 1.778m27.259 0L2.37 30.222"/></symbol><symbol id="icon-instagam" viewBox="0 0 32 32"><path d="M32 2a2 2 0 1 1-3.999.001A2 2 0 0 1 32 2zM16 30C8.268 30 2 23.732 2 16S8.268 2 16 2s14 6.268 14 14-6.268 14-14 14zm0-4.667a9.333 9.333 0 1 0 0-18.666 9.333 9.333 0 1 0 0 18.666z"/></symbol><symbol id="icon-headphones" viewBox="0 0 26 32"><path d="M0 0h25.83v32H0z"/><symbol id="icon-facebook" viewBox="0 0 32 32"><path d="M24 10.363h-5.904V7.04c0-1.248.963-1.539 1.643-1.539h4.165V.018l-5.736-.019c-6.371 0-7.821 4.091-7.821 6.707v3.653h-3.68v5.653h3.68v15.987h7.749V16.01h5.227L24 10.362z"/></symbol><symbol id="icon-modal-close" viewBox="0 0 32 32"><path fill="none" stroke="#86e543" style="stroke:var(--color1,#86e543)" stroke-linejoin="round" stroke-linecap="round" stroke-width="1.143" d="M21.486 10.514 10.515 21.485m-.001-10.971 10.971 10.971M16 31.238c8.416 0 15.238-6.822 15.238-15.238S24.416.762 16 .762.762 7.584.762 16 7.584 31.238 16 31.238z"/></symbol><symbol id="icon-close-green" viewBox="0 0 32 32"><path fill="none" stroke="#86e543" style="stroke:var(--color3,#86e543)" stroke-linejoin="round" stroke-linecap="round" stroke-width="1.412" d="M21.294 10.706 10.706 21.294m0-10.588 10.588 10.588M16 30.706c8.122 0 14.706-6.584 14.706-14.706S24.122 1.294 16 1.294 1.294 7.878 1.294 16 7.878 30.706 16 30.706z"/></symbol><symbol id="icon-cool" viewBox="0 0 32 32"><path stroke-linejoin="round" stroke-linecap="round" stroke-width="2.667" d="M2.787 14.111a1.333 1.333 0 0 1 1.328-1.444H6.666c.736 0 1.333.597 1.333 1.333v13.333c0 .736-.597 1.333-1.333 1.333h-1.44c-.697 0-1.27-.535-1.328-1.218v-.005L2.787 14.11h-.001zM12 14.25c0-.557.347-1.056.85-1.293 1.099-.519 2.972-1.561 3.817-2.969 1.089-1.816 1.293-5.097 1.327-5.848.005-.105.003-.211.017-.315.18-1.302 2.693.219 3.657 1.827.523.872.59 2.018.535 2.913-.06.957-.34 1.882-.615 2.801l-.587 1.958h7.238a1.334 1.334 0 0 1 1.281 1.705l.002-.009-3.58 12.677a1.336 1.336 0 0 1-1.283.971H13.334a1.333 1.333 0 0 1-1.333-1.333V14.252z"/></symbol><symbol id="icon-bad" viewBox="0 0 32 32"><path fill="none" stroke="#86e543" style="stroke:var(--color3,#86e543)" stroke-linejoin="round" stroke-linecap="round" stroke-width="2.667" d="M2.787 17.889a1.333 1.333 0 0 0 1.328 1.444H6.666c.736 0 1.333-.597 1.333-1.333v0V4.667c0-.736-.597-1.333-1.333-1.333v0h-1.44c-.697 0-1.27.535-1.328 1.218v.005L2.787 17.89h-.001zM12 17.75c0 .557.347 1.056.85 1.293 1.099.519 2.972 1.561 3.817 2.969 1.089 1.816 1.293 5.097 1.327 5.848.005.105.003.211.017.315.18 1.302 2.693-.219 3.657-1.827.523-.872.59-2.018.535-2.913-.06-.957-.34-1.882-.615-2.801l-.587-1.958h7.238a1.334 1.334 0 0 0 1.281-1.705l.002.009-3.58-12.677a1.336 1.336 0 0 0-1.283-.971H13.334c-.736 0-1.333.597-1.333 1.333v13.083z"/></symbol><symbol id="icon-triangle-off" viewBox="0 0 45 32"><path fill="#fff" style="fill:var(--color1,#fff)" d="M24.904 28.876a3.198 3.198 0 0 1-4.995.006l-.005-.006L1.613 5.995A3.201 3.201 0 0 1 4.112.797h36.583a3.201 3.201 0 0 1 2.492 5.204l.005-.006-18.285 22.881z"/></symbol><symbol id="icon-triangle-on" viewBox="0 0 45 32"><path fill="#fff" style="fill:var(--color1,#fff)" d="M24.904 3.124a3.198 3.198 0 0 0-4.995-.006l-.005.006L1.613 26.005a3.201 3.201 0 0 0 2.499 5.198h36.583a3.201 3.201 0 0 0 2.492-5.204l.005.006L24.907 3.124z"/></symbol></symbol></defs></svg>