<svg width="115" height="47" fill="none" xmlns="http://www.w3.org/2000/svg">
  <path d="M10.508 13.535a2.26 2.26 0 0 0-.14-.82 1.55 1.55 0 0 0-.493-.68c-.242-.21-.582-.418-1.02-.62a14.404 14.404 0 0 0-1.699-.634 21.507 21.507 0 0 1-2.203-.844 9.052 9.052 0 0 1-1.828-1.09 4.911 4.911 0 0 1-1.242-1.464c-.297-.555-.446-1.2-.446-1.934a4 4 0 0 1 .47-1.933 4.45 4.45 0 0 1 1.312-1.5c.562-.422 1.226-.746 1.992-.973a9.019 9.019 0 0 1 2.543-.34c1.258 0 2.355.227 3.293.68.937.453 1.664 1.074 2.18 1.863.523.79.785 1.692.785 2.707H10.52c0-.5-.106-.937-.317-1.312a2.14 2.14 0 0 0-.937-.903c-.414-.218-.938-.328-1.57-.328-.61 0-1.118.094-1.524.281-.406.18-.711.426-.914.739a1.817 1.817 0 0 0-.305 1.03c0 .29.07.552.211.786.149.234.367.453.656.656.29.203.645.395 1.067.575.422.18.91.355 1.465.527.93.281 1.746.598 2.449.95.71.35 1.304.745 1.781 1.183.477.437.836.933 1.078 1.488.242.555.363 1.184.363 1.887 0 .742-.144 1.406-.433 1.992a4.092 4.092 0 0 1-1.254 1.488c-.547.406-1.2.715-1.957.926-.758.21-1.606.316-2.543.316-.844 0-1.676-.109-2.496-.328a7.58 7.58 0 0 1-2.238-1.02 5.138 5.138 0 0 1-1.594-1.734C1.109 14.45.91 13.617.91 12.656h3.528c0 .531.082.98.246 1.348.164.367.394.664.691.89.305.227.664.391 1.078.493.422.101.883.152 1.383.152.61 0 1.11-.086 1.5-.258.398-.172.691-.41.879-.715a1.87 1.87 0 0 0 .293-1.03Zm17.285-5.648v2.742h-8.906V7.887h8.906ZM19.93.937V18h-3.516V.937h3.516Zm10.37 0V18h-3.503V.937H30.3ZM47.376 9.07v.809c0 1.297-.176 2.46-.527 3.492-.352 1.031-.848 1.91-1.489 2.637a6.453 6.453 0 0 1-2.297 1.652c-.882.383-1.863.574-2.94.574-1.071 0-2.052-.191-2.942-.574a6.593 6.593 0 0 1-2.297-1.652c-.649-.727-1.153-1.606-1.512-2.637-.352-1.031-.527-2.195-.527-3.492V9.07c0-1.304.175-2.468.527-3.492.352-1.031.848-1.91 1.488-2.637a6.525 6.525 0 0 1 2.297-1.664c.89-.382 1.871-.574 2.942-.574 1.078 0 2.058.192 2.941.574.89.383 1.656.938 2.297 1.664.648.727 1.148 1.606 1.5 2.637.36 1.024.539 2.188.539 3.492Zm-3.55.809v-.832c0-.906-.083-1.703-.247-2.39-.164-.688-.406-1.266-.726-1.735a3.138 3.138 0 0 0-1.172-1.055c-.461-.242-.989-.363-1.582-.363-.594 0-1.121.121-1.582.363-.453.235-.84.586-1.16 1.055-.313.469-.551 1.047-.715 1.734-.164.688-.246 1.485-.246 2.39v.833c0 .898.082 1.695.246 2.39.164.688.406 1.27.726 1.747.32.468.711.824 1.172 1.066.461.242.988.363 1.582.363.594 0 1.121-.12 1.582-.363a3.145 3.145 0 0 0 1.16-1.066c.313-.477.551-1.059.715-1.746.164-.696.246-1.493.246-2.391Zm12.726 2.039h-4.348V9.176h4.348c.672 0 1.218-.11 1.64-.328.422-.227.73-.54.926-.938.196-.398.293-.848.293-1.348 0-.507-.097-.98-.293-1.417a2.367 2.367 0 0 0-.926-1.055c-.422-.266-.968-.399-1.64-.399h-3.13V18h-3.515V.937h6.645c1.336 0 2.48.243 3.433.727.961.477 1.696 1.137 2.203 1.98.508.844.762 1.81.762 2.895 0 1.102-.254 2.055-.761 2.86-.508.804-1.243 1.425-2.204 1.863-.953.437-2.097.656-3.433.656ZM74.867.938V18h-3.515V.937h3.515Zm6.797 7.289v2.742h-7.758V8.227h7.758Zm.82-7.29v2.754h-8.578V.938h8.578ZM98.54 9.07v.809c0 1.297-.176 2.46-.527 3.492-.352 1.031-.848 1.91-1.489 2.637a6.452 6.452 0 0 1-2.296 1.652c-.883.383-1.864.574-2.942.574-1.07 0-2.05-.191-2.941-.574a6.592 6.592 0 0 1-2.297-1.652c-.649-.727-1.153-1.606-1.512-2.637-.351-1.031-.527-2.195-.527-3.492V9.07c0-1.304.176-2.468.527-3.492.352-1.031.848-1.91 1.488-2.637a6.527 6.527 0 0 1 2.297-1.664c.89-.382 1.871-.574 2.942-.574 1.078 0 2.058.192 2.941.574.89.383 1.656.938 2.297 1.664.648.727 1.148 1.606 1.5 2.637.36 1.024.54 2.188.54 3.492Zm-3.55.809v-.832c0-.906-.083-1.703-.247-2.39-.164-.688-.406-1.266-.726-1.735-.32-.469-.711-.82-1.172-1.055-.461-.242-.988-.363-1.582-.363-.594 0-1.121.121-1.582.363-.453.235-.84.586-1.16 1.055-.313.469-.551 1.047-.715 1.734-.164.688-.246 1.485-.246 2.39v.833c0 .898.082 1.695.246 2.39.164.688.406 1.27.726 1.747.32.468.711.824 1.172 1.066.461.242.988.363 1.582.363.594 0 1.121-.12 1.582-.363.461-.242.848-.598 1.16-1.066.313-.477.551-1.059.715-1.746.164-.696.246-1.493.246-2.391ZM101.07.938h6.364c1.304 0 2.425.195 3.363.585.945.391 1.672.97 2.18 1.735.507.765.761 1.707.761 2.824 0 .914-.156 1.7-.468 2.356a4.42 4.42 0 0 1-1.301 1.628 6.754 6.754 0 0 1-1.957 1.032l-1.114.586h-5.531l-.023-2.743h4.113c.617 0 1.129-.109 1.535-.328a2.15 2.15 0 0 0 .914-.914c.211-.39.317-.844.317-1.36 0-.546-.102-1.019-.305-1.417a2.056 2.056 0 0 0-.926-.914c-.414-.211-.933-.317-1.558-.317h-2.848V18h-3.516V.937ZM110.609 18l-3.89-7.605 3.715-.024 3.937 7.465V18h-3.762ZM26.961 37.082v6.762c-.266.32-.676.668-1.23 1.043-.555.367-1.27.683-2.145.949-.875.266-1.934.398-3.176.398-1.101 0-2.105-.18-3.012-.539a6.507 6.507 0 0 1-2.343-1.605c-.649-.703-1.149-1.563-1.5-2.578-.352-1.024-.528-2.192-.528-3.504V36.94c0-1.312.168-2.48.504-3.504.344-1.023.832-1.886 1.465-2.59a6.269 6.269 0 0 1 2.262-1.605c.875-.367 1.848-.55 2.918-.55 1.484 0 2.703.242 3.656.726.953.477 1.68 1.14 2.18 1.992.508.844.82 1.813.937 2.906h-3.41c-.086-.578-.25-1.082-.492-1.511a2.544 2.544 0 0 0-1.043-1.008c-.445-.242-1.024-.363-1.735-.363-.585 0-1.109.12-1.57.363a3.106 3.106 0 0 0-1.148 1.043c-.313.46-.551 1.031-.715 1.71-.164.68-.246 1.47-.246 2.368v1.09c0 .89.086 1.68.258 2.367.172.68.425 1.254.761 1.723.344.46.766.808 1.266 1.043.5.234 1.082.351 1.746.351.555 0 1.016-.047 1.383-.14.375-.094.676-.207.902-.34a2.83 2.83 0 0 0 .54-.399V39.59h-3.212v-2.508h6.727Zm9.773-5.227L32.094 46h-3.739l6.34-17.063h2.38l-.34 2.918ZM40.59 46l-4.653-14.145-.374-2.918h2.402L44.34 46h-3.75Zm-.211-6.352v2.754h-9.012v-2.754h9.012Zm7.148-10.71h2.977l4.383 12.527 4.383-12.528h2.976L56.082 46h-2.39l-6.165-17.063Zm-1.605 0h2.965l.539 12.21V46h-3.504V28.937Zm14.965 0h2.976V46h-3.515v-4.852l.539-12.21Zm17.507 14.32V46h-9.082v-2.742h9.082Zm-7.933-14.32V46h-3.516V28.937h3.516Zm6.75 6.949v2.672h-7.898v-2.672h7.898Zm1.172-6.95v2.754h-9.07v-2.753h9.07Zm2.062 0h6.364c1.304 0 2.425.196 3.363.586.945.391 1.672.97 2.18 1.735.507.765.761 1.707.761 2.824 0 .914-.156 1.7-.469 2.355a4.412 4.412 0 0 1-1.3 1.63 6.751 6.751 0 0 1-1.957 1.03l-1.114.587h-5.53l-.024-2.743h4.113c.617 0 1.129-.109 1.535-.328a2.15 2.15 0 0 0 .914-.914c.211-.39.317-.843.317-1.36 0-.546-.102-1.019-.305-1.417a2.057 2.057 0 0 0-.926-.914c-.414-.211-.933-.317-1.558-.317H83.96V46h-3.516V28.937ZM89.985 46l-3.891-7.605 3.715-.024 3.937 7.465V46h-3.762Zm14.718-4.465c0-.304-.047-.578-.141-.82a1.543 1.543 0 0 0-.492-.68c-.242-.21-.582-.418-1.019-.62a14.454 14.454 0 0 0-1.699-.634 21.473 21.473 0 0 1-2.204-.843 9.056 9.056 0 0 1-1.828-1.09 4.912 4.912 0 0 1-1.242-1.465c-.297-.555-.445-1.2-.445-1.934a4 4 0 0 1 .469-1.933 4.451 4.451 0 0 1 1.312-1.5c.563-.422 1.227-.746 1.992-.973a9.018 9.018 0 0 1 2.543-.34c1.258 0 2.356.227 3.293.68.938.453 1.664 1.074 2.18 1.863.523.79.785 1.692.785 2.707h-3.492c0-.5-.106-.937-.317-1.312a2.138 2.138 0 0 0-.937-.903c-.414-.218-.938-.328-1.57-.328-.61 0-1.118.094-1.524.281-.406.18-.71.426-.914.739a1.817 1.817 0 0 0-.305 1.03c0 .29.07.552.211.786.149.234.368.453.657.656.289.203.644.395 1.066.575.422.18.91.355 1.465.527.93.281 1.746.598 2.449.95.711.35 1.305.745 1.781 1.183.477.437.836.933 1.078 1.488.243.555.364 1.184.364 1.887 0 .742-.145 1.406-.434 1.992a4.091 4.091 0 0 1-1.254 1.488c-.547.406-1.199.715-1.957.926-.758.21-1.605.316-2.543.316-.843 0-1.676-.109-2.496-.328a7.58 7.58 0 0 1-2.238-1.02 5.138 5.138 0 0 1-1.594-1.734c-.398-.703-.597-1.535-.597-2.496h3.527c0 .532.082.98.246 1.348.164.367.394.664.691.89.305.227.664.391 1.078.493.422.101.883.152 1.383.152.61 0 1.11-.086 1.5-.258.399-.172.692-.41.879-.715.195-.304.293-.648.293-1.03Z" fill="#fff"/>
</svg>
