<svg aria-hidden="true" style="position: absolute; width: 0; height: 0; overflow: hidden;" version="1.1" xmlns="http://www.w3.org/2000/svg" xmlns:xlink="http://www.w3.org/1999/xlink">
<defs>
<symbol id="icon-mouse" viewBox="0 0 19 32">
<path d="M0 0h19.345v32h-19.345z"></path>
</symbol>
<symbol id="icon-logo-shop" viewBox="0 0 78 32">
<path fill="#fff" style="fill: var(--color1, #fff)" d="M7.154 9.215c0-0.007 0-0.016 0-0.025 0-0.192-0.035-0.375-0.099-0.544l0.003 0.011c-0.070-0.187-0.186-0.344-0.333-0.461l-0.002-0.002c-0.165-0.143-0.396-0.285-0.694-0.422-0.31-0.144-0.693-0.291-1.087-0.413l-0.069-0.019c-0.612-0.197-1.109-0.392-1.591-0.612l0.092 0.037c-0.475-0.214-0.884-0.462-1.259-0.753l0.014 0.011c-0.342-0.273-0.625-0.604-0.837-0.98l-0.009-0.017c-0.202-0.378-0.304-0.817-0.304-1.317-0-0.010-0-0.023-0-0.035 0-0.469 0.119-0.91 0.327-1.296l-0.007 0.014c0.223-0.41 0.524-0.752 0.885-1.015l0.009-0.006c0.383-0.287 0.835-0.508 1.356-0.662 0.501-0.147 1.076-0.232 1.671-0.232 0.021 0 0.042 0 0.063 0l-0.003-0c0.856 0 1.603 0.155 2.242 0.463s1.133 0.731 1.484 1.268c0.356 0.538 0.534 1.152 0.534 1.843h-2.378c0-0.34-0.072-0.638-0.216-0.893-0.146-0.267-0.365-0.478-0.63-0.611l-0.008-0.004c-0.282-0.148-0.639-0.223-1.069-0.223-0.415 0-0.761 0.064-1.038 0.191-0.276 0.123-0.484 0.29-0.622 0.503-0.13 0.193-0.208 0.43-0.208 0.686 0 0.005 0 0.011 0 0.016v-0.001c0 0.197 0.048 0.376 0.144 0.535 0.101 0.159 0.25 0.308 0.447 0.447s0.439 0.269 0.726 0.391 0.62 0.242 0.997 0.359c0.633 0.191 1.189 0.407 1.667 0.647 0.483 0.238 0.888 0.507 1.213 0.805s0.569 0.635 0.734 1.013 0.247 0.806 0.247 1.285c0 0.505-0.098 0.957-0.295 1.356-0.206 0.409-0.494 0.749-0.846 1.008l-0.008 0.005c-0.372 0.276-0.817 0.487-1.332 0.63s-1.093 0.215-1.731 0.215c-0.575 0-1.141-0.074-1.699-0.223-0.579-0.16-1.087-0.398-1.542-0.706l0.018 0.012c-0.448-0.307-0.813-0.702-1.076-1.163l-0.009-0.017c-0.272-0.478-0.407-1.045-0.407-1.699h2.402c0 0.362 0.056 0.667 0.167 0.918s0.268 0.452 0.47 0.606c0.208 0.155 0.452 0.266 0.734 0.336 0.287 0.069 0.601 0.104 0.942 0.104 0.415 0 0.756-0.059 1.021-0.176 0.271-0.117 0.47-0.279 0.598-0.487 0.125-0.194 0.2-0.43 0.2-0.684 0-0.006-0-0.012-0-0.018v0.001zM18.923 5.37v1.867h-6.064v-1.867h6.064zM13.569 0.638v11.617h-2.394v-11.617h2.394zM20.63 0.638v11.617h-2.385v-11.617h2.385zM32.256 6.175v0.551c0 0.883-0.12 1.675-0.359 2.378s-0.577 1.3-1.014 1.795c-0.425 0.477-0.947 0.858-1.536 1.114l-0.028 0.011c-0.601 0.261-1.268 0.391-2.002 0.391-0.729 0-1.397-0.13-2.003-0.391-0.616-0.27-1.137-0.65-1.56-1.121l-0.004-0.004c-0.442-0.495-0.785-1.093-1.029-1.795-0.24-0.702-0.359-1.494-0.359-2.378v-0.551c0-0.888 0.119-1.68 0.359-2.378 0.24-0.702 0.577-1.3 1.013-1.795 0.425-0.479 0.947-0.862 1.535-1.122l0.028-0.011c0.606-0.26 1.274-0.391 2.003-0.391 0.734 0 1.401 0.131 2.002 0.391 0.606 0.261 1.128 0.639 1.564 1.133 0.441 0.495 0.782 1.093 1.021 1.795 0.245 0.697 0.367 1.49 0.367 2.378zM29.839 6.726v-0.566c0-0.617-0.056-1.159-0.168-1.627s-0.276-0.862-0.494-1.181c-0.202-0.303-0.471-0.546-0.786-0.713l-0.012-0.006c-0.314-0.165-0.673-0.247-1.077-0.247s-0.763 0.082-1.077 0.247c-0.308 0.16-0.572 0.399-0.79 0.718-0.213 0.319-0.375 0.713-0.487 1.181s-0.168 1.011-0.168 1.627v0.567c0 0.611 0.056 1.154 0.168 1.627 0.112 0.468 0.276 0.865 0.494 1.189 0.218 0.319 0.484 0.561 0.798 0.726s0.673 0.247 1.077 0.247c0.404 0 0.763-0.082 1.077-0.247 0.324-0.175 0.59-0.421 0.785-0.718l0.005-0.008c0.213-0.325 0.375-0.721 0.487-1.189 0.112-0.474 0.168-1.016 0.168-1.628zM38.504 8.114h-2.96v-1.867h2.96c0.458 0 0.829-0.075 1.117-0.223 0.287-0.155 0.497-0.368 0.63-0.639s0.2-0.577 0.2-0.918c0-0.345-0.066-0.667-0.2-0.965-0.137-0.302-0.354-0.547-0.624-0.714l-0.007-0.004c-0.287-0.181-0.659-0.272-1.117-0.272h-2.131v9.742h-2.393v-11.617h4.524c0.91 0 1.688 0.165 2.337 0.495 0.654 0.325 1.155 0.774 1.5 1.348s0.519 1.232 0.519 1.971c0 0.75-0.173 1.399-0.518 1.947s-0.846 0.97-1.501 1.268c-0.649 0.298-1.428 0.447-2.337 0.447zM50.973 0.639v11.617h-2.393v-11.617h2.393zM55.601 5.601v1.867h-5.282v-1.867h5.282zM56.159 0.638v1.875h-5.84v-1.874h5.84zM67.091 6.175v0.551c0 0.883-0.12 1.675-0.359 2.378s-0.577 1.3-1.014 1.795c-0.425 0.477-0.946 0.858-1.535 1.114l-0.028 0.011c-0.601 0.261-1.269 0.391-2.003 0.391-0.728 0-1.396-0.13-2.002-0.391-0.616-0.27-1.137-0.65-1.56-1.121l-0.004-0.004c-0.442-0.495-0.785-1.093-1.029-1.795-0.239-0.702-0.359-1.494-0.359-2.378v-0.551c0-0.888 0.12-1.68 0.359-2.378 0.24-0.702 0.577-1.3 1.013-1.795 0.425-0.479 0.947-0.862 1.535-1.122l0.028-0.011c0.606-0.26 1.274-0.391 2.003-0.391 0.734 0 1.401 0.131 2.002 0.391 0.606 0.261 1.127 0.639 1.564 1.133 0.441 0.495 0.782 1.093 1.021 1.795 0.245 0.697 0.368 1.49 0.368 2.378zM64.674 6.726v-0.566c0-0.617-0.056-1.159-0.168-1.627s-0.276-0.862-0.494-1.181-0.484-0.558-0.798-0.718c-0.314-0.165-0.673-0.247-1.077-0.247s-0.763 0.082-1.077 0.247c-0.308 0.16-0.572 0.399-0.79 0.718-0.213 0.319-0.375 0.713-0.487 1.181s-0.167 1.011-0.167 1.627v0.567c0 0.611 0.056 1.154 0.167 1.627 0.112 0.468 0.276 0.865 0.494 1.189 0.218 0.319 0.484 0.561 0.798 0.726s0.673 0.247 1.077 0.247c0.404 0 0.763-0.082 1.077-0.247s0.577-0.407 0.79-0.726c0.213-0.325 0.375-0.721 0.487-1.189 0.112-0.474 0.168-1.016 0.168-1.628zM68.814 0.639h4.333c0.888 0 1.651 0.133 2.29 0.398 0.643 0.266 1.138 0.66 1.484 1.181s0.518 1.162 0.518 1.923c0 0.622-0.106 1.157-0.319 1.604-0.21 0.445-0.51 0.816-0.879 1.103l-0.007 0.005c-0.381 0.292-0.823 0.531-1.3 0.693l-0.032 0.010-0.758 0.399h-3.766l-0.016-1.868h2.8c0.42 0 0.769-0.074 1.045-0.223 0.268-0.141 0.481-0.355 0.618-0.614l0.004-0.008c0.144-0.266 0.216-0.575 0.216-0.926 0-0.372-0.069-0.694-0.208-0.965-0.14-0.271-0.357-0.486-0.622-0.619l-0.008-0.004c-0.282-0.144-0.635-0.216-1.061-0.216h-1.939v9.742h-2.394v-11.617zM75.308 12.255l-2.648-5.178 2.529-0.016 2.68 5.083v0.112h-2.561zM18.356 25.247v4.604c-0.181 0.218-0.46 0.455-0.837 0.71-0.378 0.25-0.865 0.465-1.46 0.646s-1.317 0.271-2.162 0.271c-0.75 0-1.433-0.123-2.051-0.367-0.627-0.255-1.159-0.626-1.593-1.090l-0.002-0.003c-0.442-0.479-0.782-1.064-1.021-1.755-0.24-0.697-0.36-1.492-0.36-2.386v-0.727c0-0.893 0.114-1.689 0.343-2.386 0.234-0.697 0.566-1.284 0.997-1.763 0.418-0.465 0.932-0.836 1.512-1.082l0.028-0.011c0.596-0.25 1.258-0.374 1.987-0.374 1.010 0 1.84 0.165 2.489 0.494 0.649 0.325 1.144 0.776 1.484 1.356 0.346 0.575 0.558 1.234 0.638 1.979h-2.322c-0.059-0.394-0.17-0.737-0.335-1.029-0.168-0.294-0.41-0.528-0.701-0.682l-0.009-0.005c-0.303-0.165-0.697-0.247-1.181-0.247-0.398 0-0.755 0.082-1.069 0.247-0.32 0.171-0.584 0.412-0.777 0.702l-0.005 0.008c-0.213 0.313-0.375 0.702-0.487 1.164s-0.168 1.001-0.168 1.612v0.742c0 0.606 0.059 1.144 0.176 1.612 0.117 0.463 0.289 0.854 0.518 1.173 0.234 0.313 0.522 0.55 0.862 0.71s0.737 0.239 1.189 0.239c0.378 0 0.692-0.032 0.942-0.095 0.255-0.064 0.46-0.141 0.614-0.232 0.139-0.080 0.26-0.17 0.369-0.273l-0.001 0.001v-2.058h-2.187v-1.708h4.58zM25.010 21.689l-3.159 9.631h-2.546l4.317-11.617h1.62l-0.232 1.987zM27.636 31.319l-3.168-9.631-0.255-1.987h1.635l4.34 11.617h-2.553zM27.492 26.994v1.875h-6.136v-1.875h6.136zM32.359 19.702h2.027l2.984 8.529 2.984-8.53h2.026l-4.197 11.617h-1.627l-4.197-11.617zM31.266 19.702h2.019l0.367 8.313v3.303h-2.386v-11.617zM41.455 19.702h2.026v11.617h-2.393v-3.303l0.367-8.313zM53.375 29.452v1.867h-6.184v-1.867h6.184zM47.973 19.702v11.617h-2.394v-11.617h2.394zM52.569 24.434v1.819h-5.377v-1.819h5.377zM53.367 19.702v1.875h-6.175v-1.874h6.175zM54.771 19.702h4.333c0.888 0 1.651 0.133 2.29 0.399 0.643 0.266 1.138 0.66 1.484 1.181s0.518 1.162 0.518 1.923c0 0.622-0.106 1.157-0.319 1.603-0.21 0.445-0.51 0.817-0.878 1.105l-0.007 0.005c-0.381 0.292-0.823 0.53-1.3 0.692l-0.032 0.010-0.758 0.4h-3.765l-0.016-1.868h2.8c0.42 0 0.769-0.074 1.045-0.223 0.268-0.141 0.481-0.355 0.618-0.614l0.004-0.008c0.144-0.266 0.216-0.574 0.216-0.926 0-0.372-0.069-0.694-0.208-0.965-0.14-0.271-0.357-0.486-0.622-0.619l-0.008-0.004c-0.282-0.144-0.635-0.216-1.061-0.216h-1.94v9.742h-2.394v-11.617zM61.266 31.319l-2.649-5.178 2.529-0.016 2.681 5.083v0.112h-2.561zM71.287 28.279c0-0.207-0.032-0.394-0.096-0.558-0.070-0.187-0.185-0.344-0.333-0.461l-0.002-0.002c-0.165-0.143-0.396-0.285-0.694-0.422-0.309-0.144-0.693-0.29-1.087-0.413l-0.070-0.019c-0.612-0.197-1.109-0.391-1.592-0.611l0.091 0.037c-0.475-0.214-0.884-0.462-1.259-0.753l0.014 0.011c-0.342-0.273-0.625-0.604-0.837-0.981l-0.009-0.017c-0.202-0.378-0.303-0.817-0.303-1.317-0-0.011-0-0.023-0-0.036 0-0.469 0.118-0.909 0.327-1.294l-0.007 0.014c0.223-0.41 0.524-0.752 0.885-1.015l0.009-0.006c0.383-0.287 0.835-0.508 1.356-0.662 0.501-0.147 1.076-0.232 1.671-0.232 0.021 0 0.042 0 0.064 0l-0.003-0c0.856 0 1.604 0.155 2.242 0.463s1.133 0.731 1.484 1.268c0.356 0.538 0.534 1.152 0.534 1.843h-2.378c0-0.34-0.072-0.638-0.216-0.893-0.146-0.267-0.365-0.478-0.63-0.611l-0.008-0.004c-0.282-0.148-0.639-0.223-1.069-0.223-0.415 0-0.761 0.064-1.038 0.191-0.276 0.123-0.483 0.29-0.622 0.503-0.13 0.193-0.208 0.43-0.208 0.686 0 0.005 0 0.011 0 0.016v-0.001c0 0.197 0.048 0.376 0.144 0.535 0.101 0.159 0.251 0.308 0.447 0.447s0.438 0.269 0.726 0.392c0.287 0.123 0.62 0.242 0.997 0.359 0.633 0.191 1.189 0.407 1.667 0.647 0.484 0.238 0.888 0.507 1.213 0.805s0.569 0.635 0.734 1.013c0.165 0.378 0.248 0.806 0.248 1.285 0 0.505-0.099 0.957-0.296 1.356-0.206 0.409-0.494 0.749-0.846 1.008l-0.008 0.005c-0.372 0.276-0.816 0.487-1.332 0.63s-1.093 0.215-1.731 0.215c-0.574 0-1.141-0.074-1.699-0.223-0.579-0.16-1.087-0.398-1.542-0.706l0.018 0.012c-0.448-0.307-0.813-0.702-1.076-1.163l-0.009-0.017c-0.271-0.479-0.406-1.045-0.406-1.699h2.401c0 0.362 0.056 0.667 0.168 0.918s0.268 0.452 0.47 0.606c0.208 0.155 0.452 0.266 0.734 0.336 0.287 0.069 0.601 0.104 0.942 0.104 0.415 0 0.756-0.059 1.021-0.176 0.272-0.117 0.471-0.279 0.598-0.487 0.133-0.207 0.2-0.441 0.2-0.701z"></path>
</symbol>
<symbol id="icon-keyboard" viewBox="0 0 66 32">
<path d="M0 0h66.319v32h-66.319z"></path>
</symbol>
<symbol id="icon-youtube" viewBox="0 0 32 32">
<path d="M28.501 5.973c1.379 0.349 2.461 1.387 2.829 2.701 0.669 2.384 0.669 7.36 0.669 7.36s0 4.973-0.667 7.357c-0.371 1.315-1.453 2.307-2.832 2.659-2.496 0.64-12.501 0.64-12.501 0.64s-10.005 0-12.501-0.64c-1.379-0.352-2.461-1.344-2.832-2.659-0.667-2.384-0.667-7.36-0.667-7.36s0-4.973 0.667-7.357c0.404-1.34 1.47-2.362 2.808-2.696l0.027-0.006c2.493-0.64 12.499-0.64 12.499-0.64s10.005 0 12.501 0.64zM12.728 11.517v9.032l8.363-4.517-8.363-4.512z"></path>
</symbol>
<symbol id="icon-menu-open" viewBox="0 0 48 32">
<path fill="#86e543" style="fill: var(--color1, #86e543)" d="M45.467 13.333h-42.933c-1.399 0-2.533 0.681-2.533 1.52v0.16c0 0.839 1.134 1.52 2.533 1.52h42.933c1.399 0 2.533-0.681 2.533-1.52v-0.16c0-0.839-1.134-1.52-2.533-1.52zM45.467 26.667h-42.933c-1.399 0-2.533 0.681-2.533 1.52v0.16c0 0.839 1.134 1.52 2.533 1.52h42.933c1.399 0 2.533-0.681 2.533-1.52v-0.16c0-0.839-1.134-1.52-2.533-1.52zM45.467 0h-42.933c-1.399 0-2.533 0.681-2.533 1.52v0.16c0 0.839 1.134 1.52 2.533 1.52h42.933c1.399 0 2.533-0.681 2.533-1.52v-0.16c0-0.839-1.134-1.52-2.533-1.52z"></path>
</symbol>
<symbol id="icon-menu-close" viewBox="0 0 32 32">
<path fill="none" stroke="#86e543" style="stroke: var(--color1, #86e543)" stroke-linejoin="miter" stroke-linecap="round" stroke-miterlimit="4" stroke-width="3.5556" d="M29.629 30.222l-27.259-28.444M29.629 1.778l-27.259 28.444"></path>
</symbol>
<symbol id="icon-instagam" viewBox="0 0 32 32">
<path d="M32 2c0 1.105-0.895 2-2 2s-2-0.895-2-2c0-1.105 0.895-2 2-2s2 0.895 2 2z"></path>
<path d="M16 30v0c-7.732 0-14-6.268-14-14s6.268-14 14-14v0c7.732 0 14 6.268 14 14s-6.268 14-14 14zM16 25.333c5.155 0 9.333-4.179 9.333-9.333s-4.179-9.333-9.333-9.333v0c-5.155 0-9.333 4.179-9.333 9.333s4.179 9.333 9.333 9.333v0z"></path>
</symbol>
<symbol id="icon-headphones" viewBox="0 0 26 32">
<path d="M0 0h25.83v32h-25.83z"></path>
<symbol id="icon-facebook" viewBox="0 0 32 32">
<path d="M24 10.363h-5.904v-3.323c0-1.248 0.963-1.539 1.643-1.539h4.165v-5.483l-5.736-0.019c-6.371 0-7.821 4.091-7.821 6.707v3.653h-3.68v5.653h3.68v15.987h7.749v-15.989h5.227l0.677-5.648z"></path>
</symbol>
<symbol id="icon-modal-close" viewBox="0 0 32 32">
<path fill="none" stroke="#86e543" style="stroke: var(--color1, #86e543)" stroke-linejoin="round" stroke-linecap="round" stroke-miterlimit="4" stroke-width="1.1429" d="M21.486 10.514l-10.971 10.971M10.514 10.514l10.971 10.971M16 31.238c8.416 0 15.238-6.822 15.238-15.238s-6.822-15.238-15.238-15.238-15.238 6.822-15.238 15.238 6.822 15.238 15.238 15.238z"></path>
</symbol>
<symbol id="icon-close-green" viewBox="0 0 32 32">
<path fill="none" stroke="#86e543" style="stroke: var(--color3, #86e543)" stroke-linejoin="round" stroke-linecap="round" stroke-miterlimit="4" stroke-width="1.4118" d="M21.294 10.706l-10.588 10.588M10.706 10.706l10.588 10.588M16 30.706c8.122 0 14.706-6.584 14.706-14.706s-6.584-14.706-14.706-14.706c-8.122 0-14.706 6.584-14.706 14.706s6.584 14.706 14.706 14.706z"></path>
</symbol>
<symbol id="icon-cool" viewBox="0 0 32 32">
<path stroke-linejoin="round" stroke-linecap="round" stroke-miterlimit="4" stroke-width="2.6667" d="M2.787 14.111c-0.003-0.033-0.005-0.072-0.005-0.111 0-0.736 0.597-1.333 1.333-1.333 0 0 0.001 0 0.001 0h2.55c0.736 0 1.333 0.597 1.333 1.333v0 13.333c0 0.736-0.597 1.333-1.333 1.333v0h-1.44c-0.697-0-1.27-0.535-1.328-1.218l-0-0.005-1.111-13.333h-0.001zM12 14.25c0-0.557 0.347-1.056 0.85-1.293 1.099-0.519 2.972-1.561 3.817-2.969 1.089-1.816 1.293-5.097 1.327-5.848 0.005-0.105 0.003-0.211 0.017-0.315 0.18-1.302 2.693 0.219 3.657 1.827 0.523 0.872 0.59 2.018 0.535 2.913-0.060 0.957-0.34 1.882-0.615 2.801l-0.587 1.958h7.238c0.736 0 1.333 0.598 1.333 1.334 0 0.129-0.018 0.253-0.052 0.371l0.002-0.009-3.58 12.677c-0.163 0.565-0.676 0.971-1.283 0.971-0 0-0.001 0-0.001 0h-11.324c-0.736 0-1.333-0.597-1.333-1.333v0-13.083z"></path>
</symbol>
<symbol id="icon-bad" viewBox="0 0 32 32">
<path fill="none" stroke="#86e543" style="stroke: var(--color3, #86e543)" stroke-linejoin="round" stroke-linecap="round" stroke-miterlimit="4" stroke-width="2.6667" d="M2.787 17.889c-0.003 0.033-0.005 0.072-0.005 0.111 0 0.736 0.597 1.333 1.333 1.333 0 0 0.001 0 0.001 0h2.55c0.736 0 1.333-0.597 1.333-1.333v0-13.333c0-0.736-0.597-1.333-1.333-1.333v0h-1.44c-0.697 0-1.27 0.535-1.328 1.218l-0 0.005-1.111 13.333h-0.001zM12 17.75c0 0.557 0.347 1.056 0.85 1.293 1.099 0.519 2.972 1.561 3.817 2.969 1.089 1.816 1.293 5.097 1.327 5.848 0.005 0.105 0.003 0.211 0.017 0.315 0.18 1.302 2.693-0.219 3.657-1.827 0.523-0.872 0.59-2.018 0.535-2.913-0.060-0.957-0.34-1.882-0.615-2.801l-0.587-1.958h7.238c0.736-0 1.333-0.598 1.333-1.334 0-0.129-0.018-0.253-0.052-0.371l0.002 0.009-3.58-12.677c-0.163-0.565-0.676-0.971-1.283-0.971-0 0-0.001 0-0.001 0h-11.324c-0.736 0-1.333 0.597-1.333 1.333v0 13.083z"></path>
</symbol>
<symbol id="icon-triangle-off" viewBox="0 0 45 32">
<path fill="#fff" style="fill: var(--color1, #fff)" d="M24.904 28.876c-0.591 0.735-1.491 1.202-2.5 1.202s-1.908-0.467-2.495-1.196l-0.005-0.006-18.291-22.881c-0.436-0.542-0.7-1.239-0.7-1.997 0-1.767 1.432-3.2 3.199-3.201h36.583c1.766 0.003 3.196 1.435 3.196 3.201 0 0.758-0.264 1.455-0.704 2.003l0.005-0.006-18.285 22.881z"></path>
</symbol>
<symbol id="icon-triangle-on" viewBox="0 0 45 32">
<path fill="#fff" style="fill: var(--color1, #fff)" d="M24.904 3.124c-0.591-0.735-1.491-1.202-2.5-1.202s-1.908 0.467-2.495 1.196l-0.005 0.006-18.291 22.881c-0.436 0.542-0.7 1.239-0.7 1.997 0 1.767 1.432 3.2 3.199 3.201h36.583c1.766-0.003 3.196-1.435 3.196-3.201 0-0.758-0.264-1.455-0.704-2.003l0.005 0.006-18.285-22.881z"></path>
</symbol>
</defs>
</svg>
